<svg width="73" height="23" viewBox="0 0 73 23" fill="none" xmlns="http://www.w3.org/2000/svg">
<rect y="0.5" width="73" height="22" rx="2" fill="#DADADA"/>
<path d="M8.47692 16.5H6.36754L10.2081 5.59091H12.6477L16.4936 16.5H14.3842L11.4705 7.82812H11.3853L8.47692 16.5ZM8.54616 12.2227H14.299V13.81H8.54616V12.2227ZM17.9305 16.5V5.59091H22.1066C22.895 5.59091 23.5502 5.7152 24.0722 5.96378C24.5977 6.20881 24.9901 6.54439 25.2494 6.97053C25.5122 7.39666 25.6436 7.87962 25.6436 8.41939C25.6436 8.86328 25.5583 9.24325 25.3879 9.5593C25.2174 9.8718 24.9884 10.1257 24.7007 10.321C24.4131 10.5163 24.0917 10.6566 23.7366 10.7418V10.8484C24.1237 10.8697 24.4948 10.9886 24.8499 11.2053C25.2085 11.4183 25.5015 11.7202 25.7288 12.1108C25.9561 12.5014 26.0697 12.9737 26.0697 13.5277C26.0697 14.0923 25.933 14.6001 25.6595 15.0511C25.3861 15.4986 24.9742 15.8519 24.4237 16.1112C23.8733 16.3704 23.1808 16.5 22.3463 16.5H17.9305ZM19.9067 14.8487H22.032C22.7494 14.8487 23.2661 14.712 23.5821 14.4386C23.9017 14.1616 24.0615 13.8065 24.0615 13.3732C24.0615 13.0501 23.9816 12.7589 23.8218 12.4996C23.662 12.2369 23.4347 12.0309 23.14 11.8817C22.8453 11.729 22.4937 11.6527 22.0853 11.6527H19.9067V14.8487ZM19.9067 10.2305H21.8616C22.2025 10.2305 22.5097 10.1683 22.7831 10.044C23.0566 9.91619 23.2714 9.73686 23.4276 9.50604C23.5874 9.27166 23.6673 8.99467 23.6673 8.67507C23.6673 8.25249 23.5182 7.90447 23.2199 7.63104C22.9252 7.3576 22.4866 7.22088 21.9042 7.22088H19.9067V10.2305ZM33.7175 8.58984C33.6678 8.12464 33.4583 7.76243 33.089 7.5032C32.7232 7.24396 32.2473 7.11435 31.6614 7.11435C31.2495 7.11435 30.8961 7.17649 30.6014 7.30078C30.3066 7.42507 30.0811 7.59375 29.9249 7.80682C29.7686 8.01989 29.6887 8.26314 29.6852 8.53658C29.6852 8.76385 29.7367 8.96094 29.8397 9.12784C29.9462 9.29474 30.09 9.43679 30.2711 9.55398C30.4522 9.66761 30.6529 9.76349 30.873 9.84162C31.0932 9.91974 31.3152 9.98544 31.5389 10.0387L32.5616 10.2944C32.9735 10.3903 33.3695 10.5199 33.7495 10.6832C34.133 10.8466 34.4757 11.0526 34.7775 11.3011C35.0829 11.5497 35.3244 11.8498 35.502 12.2013C35.6795 12.5529 35.7683 12.9648 35.7683 13.4371C35.7683 14.0763 35.6049 14.6392 35.2782 15.1257C34.9515 15.6087 34.4792 15.9869 33.8613 16.2603C33.247 16.5302 32.503 16.6651 31.6294 16.6651C30.7807 16.6651 30.0439 16.5337 29.4189 16.271C28.7974 16.0082 28.3109 15.6246 27.9593 15.1204C27.6113 14.6161 27.4231 14.0018 27.3947 13.2773H29.339C29.3674 13.6573 29.4846 13.9734 29.6905 14.2255C29.8965 14.4776 30.1646 14.6658 30.4949 14.7901C30.8287 14.9144 31.2015 14.9766 31.6135 14.9766C32.0431 14.9766 32.4196 14.9126 32.7427 14.7848C33.0694 14.6534 33.3251 14.4723 33.5098 14.2415C33.6944 14.0071 33.7885 13.7337 33.7921 13.4212C33.7885 13.1371 33.7051 12.9027 33.5417 12.718C33.3784 12.5298 33.1493 12.3736 32.8546 12.2493C32.5634 12.1214 32.2225 12.0078 31.8319 11.9084L30.5907 11.5888C29.6923 11.358 28.9821 11.0082 28.46 10.5394C27.9416 10.0671 27.6824 9.44034 27.6824 8.65909C27.6824 8.01633 27.8564 7.45348 28.2044 6.97053C28.5559 6.48757 29.0336 6.11293 29.6373 5.84659C30.2409 5.5767 30.9245 5.44176 31.688 5.44176C32.4622 5.44176 33.1404 5.5767 33.7228 5.84659C34.3088 6.11293 34.7686 6.48402 35.1025 6.95987C35.4363 7.43217 35.6085 7.9755 35.6191 8.58984H33.7175ZM37.5301 16.5V5.59091H44.6253V7.24751H39.5063V10.2092H44.2577V11.8658H39.5063V14.8434H44.6679V16.5H37.5301ZM55.6063 5.59091V16.5H53.8485L48.7082 9.06925H48.6176V16.5H46.6414V5.59091H48.4099L53.5448 13.027H53.6407V5.59091H55.6063ZM57.2802 7.24751V5.59091H65.984V7.24751H62.6122V16.5H60.652V7.24751H57.2802Z" fill="#494949"/>
</svg>
