<svg width="32" height="24" viewBox="0 0 32 24" fill="none" xmlns="http://www.w3.org/2000/svg">
<g clip-path="url(#clip0_4551_521)">
<path d="M7.31807 23.8819V11.5822L3.50357 8.09248L0.0830078 6.15594V21.7113C0.0830078 22.9123 1.05606 23.8819 2.25358 23.8819H7.31807Z" fill="#4285F4"/>
<path d="M24.6821 23.8819H29.7466C30.9477 23.8819 31.9172 22.9087 31.9172 21.7113V6.15606L28.0429 8.37413L24.6821 11.5822V23.8819Z" fill="#34A853"/>
<path d="M7.31787 11.5822L6.79883 6.77633L7.31787 2.17667L15.9999 8.68825L24.6819 2.17667L25.2625 6.528L24.6819 11.5822L15.9999 18.0938L7.31787 11.5822Z" fill="#EA4335"/>
<path d="M24.6821 2.17666V11.5822L31.9172 6.15594V3.26189C31.9172 0.577741 28.8532 -0.952415 26.7081 0.657326L24.6821 2.17666Z" fill="#FBBC04"/>
<path d="M0.0830078 6.15596L3.41055 8.65171L7.31807 11.5822V2.17668L5.29213 0.657345C3.14332 -0.95252 0.0830078 0.577759 0.0830078 3.26178V6.15583V6.15596Z" fill="#C5221F"/>
</g>
<defs>
<clipPath id="clip0_4551_521">
<rect width="31.8342" height="24" fill="white" transform="translate(0.0830078)"/>
</clipPath>
</defs>
</svg>
