<svg width="24" height="21" viewBox="0 0 24 21" fill="none" xmlns="http://www.w3.org/2000/svg">
<path d="M13.8101 0.67386C8.15562 0.518335 3.52319 5.06189 3.52319 10.6719H1.53469C1.03479 10.6719 0.790392 11.2718 1.14588 11.6162L4.24527 14.7267C4.46745 14.9488 4.81183 14.9488 5.03401 14.7267L8.1334 11.6162C8.21016 11.5378 8.26203 11.4386 8.28246 11.3308C8.30289 11.2231 8.29097 11.1117 8.2482 11.0107C8.20544 10.9097 8.13373 10.8237 8.04213 10.7634C7.95054 10.7031 7.84314 10.6713 7.73348 10.6719H5.74498C5.74498 6.33942 9.27762 2.8401 13.6323 2.89565C17.7648 2.95119 21.2419 6.42829 21.2975 10.5608C21.353 14.9044 17.8537 18.4482 13.5212 18.4482C11.7327 18.4482 10.0775 17.8372 8.76661 16.804C8.55383 16.6364 8.28687 16.5529 8.01649 16.5692C7.74612 16.5856 7.4912 16.7008 7.30023 16.8929C6.83365 17.3595 6.86698 18.1482 7.3891 18.5481C9.13445 19.9284 11.2961 20.6763 13.5212 20.6699C19.1312 20.6699 23.6748 16.0375 23.5193 10.3831C23.3749 5.17298 19.0202 0.818276 13.8101 0.67386ZM13.2435 6.22833C12.788 6.22833 12.4103 6.60603 12.4103 7.0615V11.1496C12.4103 11.5384 12.6214 11.905 12.9547 12.105L16.4207 14.1601C16.8206 14.3934 17.3316 14.2601 17.5649 13.8713C17.7982 13.4714 17.6649 12.9603 17.2761 12.7271L14.0767 10.8274V7.05039C14.0767 6.60603 13.699 6.22833 13.2435 6.22833Z" fill="#191E26"/>
</svg>
