<svg width="14" height="14" viewBox="0 0 14 14" fill="none" xmlns="http://www.w3.org/2000/svg">
<path d="M12.95 13.75L8.225 9.025C7.85 9.325 7.41875 9.5625 6.93125 9.7375C6.44375 9.9125 5.925 10 5.375 10C4.0125 10 2.8595 9.52825 1.916 8.58475C0.972 7.64075 0.5 6.4875 0.5 5.125C0.5 3.7625 0.972 2.60925 1.916 1.66525C2.8595 0.72175 4.0125 0.25 5.375 0.25C6.7375 0.25 7.89075 0.72175 8.83475 1.66525C9.77825 2.60925 10.25 3.7625 10.25 5.125C10.25 5.675 10.1625 6.19375 9.9875 6.68125C9.8125 7.16875 9.575 7.6 9.275 7.975L14 12.7L12.95 13.75ZM5.375 8.5C6.3125 8.5 7.1095 8.172 7.766 7.516C8.422 6.8595 8.75 6.0625 8.75 5.125C8.75 4.1875 8.422 3.3905 7.766 2.734C7.1095 2.078 6.3125 1.75 5.375 1.75C4.4375 1.75 3.6405 2.078 2.984 2.734C2.328 3.3905 2 4.1875 2 5.125C2 6.0625 2.328 6.8595 2.984 7.516C3.6405 8.172 4.4375 8.5 5.375 8.5Z" fill="white"/>
</svg>
