<svg width="51" height="23" viewBox="0 0 51 23" fill="none" xmlns="http://www.w3.org/2000/svg">
<rect y="0.5" width="51" height="22" rx="2" fill="#C1EDD0"/>
<path d="M7.07599 16.5V5.59091H11.1669C12.005 5.59091 12.7081 5.74716 13.2763 6.05966C13.848 6.37216 14.2795 6.80185 14.5707 7.34872C14.8654 7.89205 15.0128 8.50994 15.0128 9.20241C15.0128 9.90199 14.8654 10.5234 14.5707 11.0668C14.2759 11.6101 13.8409 12.038 13.2656 12.3505C12.6903 12.6594 11.9819 12.8139 11.1403 12.8139H8.42898V11.1893H10.8739C11.364 11.1893 11.7653 11.104 12.0778 10.9336C12.3903 10.7631 12.6211 10.5288 12.7702 10.2305C12.9229 9.93217 12.9993 9.58949 12.9993 9.20241C12.9993 8.81534 12.9229 8.47443 12.7702 8.17969C12.6211 7.88494 12.3885 7.65589 12.0724 7.49254C11.7599 7.32564 11.3569 7.24219 10.8633 7.24219H9.0522V16.5H7.07599ZM16.9144 16.5H14.805L18.6456 5.59091H21.0852L24.9311 16.5H22.8217L19.908 7.82812H19.8228L16.9144 16.5ZM16.9837 12.2227H22.7365V13.81H16.9837V12.2227ZM32.1208 8.58984C32.0711 8.12464 31.8616 7.76243 31.4923 7.5032C31.1265 7.24396 30.6507 7.11435 30.0647 7.11435C29.6528 7.11435 29.2994 7.17649 29.0047 7.30078C28.71 7.42507 28.4845 7.59375 28.3282 7.80682C28.172 8.01989 28.0921 8.26314 28.0885 8.53658C28.0885 8.76385 28.14 8.96094 28.243 9.12784C28.3495 9.29474 28.4933 9.43679 28.6744 9.55398C28.8556 9.66761 29.0562 9.76349 29.2764 9.84162C29.4965 9.91974 29.7185 9.98544 29.9422 10.0387L30.9649 10.2944C31.3769 10.3903 31.7728 10.5199 32.1528 10.6832C32.5363 10.8466 32.879 11.0526 33.1808 11.3011C33.4862 11.5497 33.7277 11.8498 33.9053 12.2013C34.0828 12.5529 34.1716 12.9648 34.1716 13.4371C34.1716 14.0763 34.0083 14.6392 33.6816 15.1257C33.3548 15.6087 32.8825 15.9869 32.2646 16.2603C31.6503 16.5302 30.9063 16.6651 30.0328 16.6651C29.184 16.6651 28.4472 16.5337 27.8222 16.271C27.2007 16.0082 26.7142 15.6246 26.3627 15.1204C26.0146 14.6161 25.8264 14.0018 25.798 13.2773H27.7423C27.7707 13.6573 27.8879 13.9734 28.0938 14.2255C28.2998 14.4776 28.5679 14.6658 28.8982 14.7901C29.232 14.9144 29.6048 14.9766 30.0168 14.9766C30.4465 14.9766 30.8229 14.9126 31.146 14.7848C31.4727 14.6534 31.7284 14.4723 31.9131 14.2415C32.0977 14.0071 32.1919 13.7337 32.1954 13.4212C32.1919 13.1371 32.1084 12.9027 31.945 12.718C31.7817 12.5298 31.5526 12.3736 31.2579 12.2493C30.9667 12.1214 30.6258 12.0078 30.2352 11.9084L28.9941 11.5888C28.0956 11.358 27.3854 11.0082 26.8634 10.5394C26.3449 10.0671 26.0857 9.44034 26.0857 8.65909C26.0857 8.01633 26.2597 7.45348 26.6077 6.97053C26.9593 6.48757 27.4369 6.11293 28.0406 5.84659C28.6443 5.5767 29.3279 5.44176 30.0914 5.44176C30.8655 5.44176 31.5438 5.5767 32.1262 5.84659C32.7121 6.11293 33.172 6.48402 33.5058 6.95987C33.8396 7.43217 34.0118 7.9755 34.0225 8.58984H32.1208ZM41.862 8.58984C41.8123 8.12464 41.6028 7.76243 41.2335 7.5032C40.8677 7.24396 40.3919 7.11435 39.8059 7.11435C39.394 7.11435 39.0407 7.17649 38.7459 7.30078C38.4512 7.42507 38.2257 7.59375 38.0694 7.80682C37.9132 8.01989 37.8333 8.26314 37.8297 8.53658C37.8297 8.76385 37.8812 8.96094 37.9842 9.12784C38.0907 9.29474 38.2346 9.43679 38.4157 9.55398C38.5968 9.66761 38.7974 9.76349 39.0176 9.84162C39.2377 9.91974 39.4597 9.98544 39.6834 10.0387L40.7061 10.2944C41.1181 10.3903 41.514 10.5199 41.894 10.6832C42.2775 10.8466 42.6202 11.0526 42.9221 11.3011C43.2275 11.5497 43.4689 11.8498 43.6465 12.2013C43.824 12.5529 43.9128 12.9648 43.9128 13.4371C43.9128 14.0763 43.7495 14.6392 43.4228 15.1257C43.0961 15.6087 42.6238 15.9869 42.0059 16.2603C41.3915 16.5302 40.6475 16.6651 39.774 16.6651C38.9252 16.6651 38.1884 16.5337 37.5634 16.271C36.9419 16.0082 36.4554 15.6246 36.1039 15.1204C35.7559 14.6161 35.5676 14.0018 35.5392 13.2773H37.4835C37.5119 13.6573 37.6291 13.9734 37.835 14.2255C38.041 14.4776 38.3091 14.6658 38.6394 14.7901C38.9732 14.9144 39.3461 14.9766 39.758 14.9766C40.1877 14.9766 40.5641 14.9126 40.8873 14.7848C41.214 14.6534 41.4696 14.4723 41.6543 14.2415C41.839 14.0071 41.9331 13.7337 41.9366 13.4212C41.9331 13.1371 41.8496 12.9027 41.6863 12.718C41.5229 12.5298 41.2939 12.3736 40.9991 12.2493C40.7079 12.1214 40.367 12.0078 39.9764 11.9084L38.7353 11.5888C37.8368 11.358 37.1266 11.0082 36.6046 10.5394C36.0861 10.0671 35.8269 9.44034 35.8269 8.65909C35.8269 8.01633 36.0009 7.45348 36.3489 6.97053C36.7005 6.48757 37.1781 6.11293 37.7818 5.84659C38.3855 5.5767 39.0691 5.44176 39.8326 5.44176C40.6067 5.44176 41.285 5.5767 41.8674 5.84659C42.4533 6.11293 42.9132 6.48402 43.247 6.95987C43.5808 7.43217 43.753 7.9755 43.7637 8.58984H41.862Z" fill="#04592B"/>
</svg>
