<svg width="60" height="23" viewBox="0 0 60 23" fill="none" xmlns="http://www.w3.org/2000/svg">
<rect y="0.5" width="60" height="22" rx="2" fill="#EAD690"/>
<path d="M7.07599 16.5V5.59091H11.1669C12.005 5.59091 12.7081 5.73651 13.2763 6.0277C13.848 6.31889 14.2795 6.72727 14.5707 7.25284C14.8654 7.77486 15.0128 8.38388 15.0128 9.0799C15.0128 9.77947 14.8636 10.3867 14.5653 10.9016C14.2706 11.413 13.8356 11.8089 13.2603 12.0895C12.685 12.3665 11.9783 12.505 11.1403 12.505H8.22656V10.8643H10.8739C11.364 10.8643 11.7653 10.7969 12.0778 10.6619C12.3903 10.5234 12.6211 10.3228 12.7702 10.06C12.9229 9.79368 12.9993 9.46697 12.9993 9.0799C12.9993 8.69283 12.9229 8.36257 12.7702 8.08913C12.6175 7.81214 12.3849 7.60263 12.0724 7.46058C11.7599 7.31499 11.3569 7.24219 10.8633 7.24219H9.0522V16.5H7.07599ZM12.7116 11.5568L15.4123 16.5H13.207L10.5543 11.5568H12.7116ZM16.8319 16.5V5.59091H23.927V7.24751H18.8081V10.2092H23.5595V11.8658H18.8081V14.8434H23.9696V16.5H16.8319ZM25.9432 5.59091H28.3615L31.6001 13.4957H31.728L34.9666 5.59091H37.3849V16.5H35.4886V9.00533H35.3874L32.3725 16.468H30.9556L27.9407 8.98935H27.8395V16.5H25.9432V5.59091ZM41.5131 5.59091V16.5H39.5369V5.59091H41.5131ZM47.3499 16.5H43.6531V5.59091H47.4244C48.5075 5.59091 49.4379 5.8093 50.2156 6.24609C50.9969 6.67933 51.597 7.30256 52.0161 8.11577C52.4351 8.92898 52.6446 9.90199 52.6446 11.0348C52.6446 12.1712 52.4333 13.1477 52.0107 13.9645C51.5917 14.7812 50.9862 15.408 50.1943 15.8448C49.406 16.2816 48.4578 16.5 47.3499 16.5ZM45.6294 14.7901H47.254C48.0139 14.7901 48.6478 14.6516 49.1556 14.3746C49.6634 14.0941 50.0452 13.6768 50.3009 13.1229C50.5566 12.5653 50.6844 11.8693 50.6844 11.0348C50.6844 10.2003 50.5566 9.50781 50.3009 8.95739C50.0452 8.40341 49.667 7.9897 49.1663 7.71626C48.6691 7.43928 48.0512 7.30078 47.3126 7.30078H45.6294V14.7901Z" fill="#645008"/>
</svg>
