<svg width="34" height="34" viewBox="0 0 34 34" fill="none" xmlns="http://www.w3.org/2000/svg">
<rect x="0.5" y="0.25" width="33.5" height="33.5" rx="5" fill="#2F61AD"/>
<path d="M22.95 23.75L18.225 19.025C17.85 19.325 17.4187 19.5625 16.9312 19.7375C16.4437 19.9125 15.925 20 15.375 20C14.0125 20 12.8595 19.5282 11.916 18.5848C10.972 17.6407 10.5 16.4875 10.5 15.125C10.5 13.7625 10.972 12.6093 11.916 11.6653C12.8595 10.7218 14.0125 10.25 15.375 10.25C16.7375 10.25 17.8907 10.7218 18.8348 11.6653C19.7782 12.6093 20.25 13.7625 20.25 15.125C20.25 15.675 20.1625 16.1937 19.9875 16.6812C19.8125 17.1687 19.575 17.6 19.275 17.975L24 22.7L22.95 23.75ZM15.375 18.5C16.3125 18.5 17.1095 18.172 17.766 17.516C18.422 16.8595 18.75 16.0625 18.75 15.125C18.75 14.1875 18.422 13.3905 17.766 12.734C17.1095 12.078 16.3125 11.75 15.375 11.75C14.4375 11.75 13.6405 12.078 12.984 12.734C12.328 13.3905 12 14.1875 12 15.125C12 16.0625 12.328 16.8595 12.984 17.516C13.6405 18.172 14.4375 18.5 15.375 18.5Z" fill="white"/>
</svg>
