<svg width="22" height="24" viewBox="0 0 22 24" fill="none" xmlns="http://www.w3.org/2000/svg">
<path d="M21.4892 11.8627C21.4892 11.5252 21.4087 11.2084 21.2738 10.9204C20.3737 8.017 16.1602 8.22909 10.1667 8.08747C9.16469 8.06398 9.73786 6.88073 10.0895 4.28334C10.3184 2.59403 9.22912 0 7.39819 0C4.37932 0 7.28343 2.38127 4.61422 8.27003C3.18801 11.4164 0 9.65396 0 12.8145V20.0086C0 21.2388 0.120809 22.4214 1.85106 22.6161C3.52829 22.8047 3.1511 24 5.57063 24H17.681C18.9146 24 19.918 22.9959 19.918 21.7624C19.918 21.2509 19.7388 20.7851 19.4495 20.408C20.1341 20.0247 20.6039 19.3012 20.6039 18.4623C20.6039 17.9522 20.4254 17.4864 20.1368 17.1099C20.8234 16.7273 21.2946 16.0031 21.2946 15.1628C21.2946 14.5528 21.0476 13.9997 20.6496 13.595C21.1576 13.1849 21.4892 12.5648 21.4892 11.8627Z" fill="#EAB708"/>
<path d="M13.4781 14.0998H19.2528C20.0381 14.0998 20.775 13.6796 21.1763 13.0037C21.3414 12.7252 21.2495 12.3648 20.9703 12.199C20.6918 12.0333 20.3314 12.1265 20.1656 12.4051C19.9756 12.7266 19.6246 12.9252 19.2521 12.9252H13.3392C12.7533 12.9252 12.2768 12.4487 12.2768 11.8628C12.2768 11.2769 12.7533 10.8003 13.3392 10.8003H17.2903C17.6145 10.8003 17.8776 10.5372 17.8776 10.2131C17.8776 9.8889 17.6145 9.6258 17.2903 9.6258H13.3385C12.1049 9.6258 11.1016 10.6292 11.1016 11.8628C11.1016 12.5507 11.4204 13.1595 11.9103 13.5702C11.4975 13.9763 11.2405 14.54 11.2405 15.1629C11.2405 15.8528 11.5613 16.4636 12.0539 16.8737C11.6439 17.279 11.3895 17.8408 11.3895 18.4623C11.3895 19.214 11.7647 19.8771 12.3352 20.2831C11.9835 20.6785 11.7633 21.1932 11.7633 21.7624C11.7633 22.996 12.7667 23.9994 14.0003 23.9994H17.6809C18.4662 23.9994 19.2038 23.5799 19.6052 22.904C19.7709 22.6255 19.679 22.2651 19.4005 22.0993C19.1213 21.9349 18.7608 22.0255 18.5957 22.304C18.4045 22.6255 18.0534 22.8248 17.6809 22.8248H14.0003C13.4144 22.8248 12.9379 22.3483 12.9379 21.7624C12.9379 21.1765 13.4144 20.6999 14.0003 20.6999H18.3669C19.1521 20.6999 19.8904 20.2798 20.2911 19.6039C20.4569 19.3247 20.3649 18.9643 20.0864 18.7992C19.8052 18.6308 19.4461 18.7254 19.2817 19.0039C19.0877 19.3308 18.7454 19.5254 18.3669 19.5254H13.6265C13.0405 19.5254 12.564 19.0482 12.564 18.4623C12.564 17.8764 13.0405 17.3998 13.6265 17.3998H19.0568C19.8421 17.3998 20.5797 16.9804 20.981 16.3045C21.1468 16.026 21.0549 15.6656 20.7763 15.4998C20.4965 15.3347 20.1367 15.426 19.9716 15.7045C19.7776 16.0307 19.4354 16.2253 19.0568 16.2253H13.4781C12.8922 16.2253 12.4157 15.7488 12.4157 15.1629C12.4157 14.5769 12.8915 14.0998 13.4781 14.0998Z" fill="#AF590E"/>
</svg>
