<svg width="36" height="36" viewBox="0 0 36 36" fill="none" xmlns="http://www.w3.org/2000/svg">
<path d="M15 24H21C21.825 24 22.5 23.325 22.5 22.5V15H24.885C26.22 15 26.895 13.38 25.95 12.435L19.065 5.54999C18.9262 5.41094 18.7614 5.30062 18.5799 5.22535C18.3985 5.15007 18.204 5.11133 18.0075 5.11133C17.811 5.11133 17.6165 5.15007 17.4351 5.22535C17.2536 5.30062 17.0888 5.41094 16.95 5.54999L10.065 12.435C9.12 13.38 9.78 15 11.115 15H13.5V22.5C13.5 23.325 14.175 24 15 24ZM9 27H27C27.825 27 28.5 27.675 28.5 28.5C28.5 29.325 27.825 30 27 30H9C8.175 30 7.5 29.325 7.5 28.5C7.5 27.675 8.175 27 9 27Z" fill="#191E26"/>
</svg>
