<svg width="25" height="25" viewBox="0 0 25 25" fill="none" xmlns="http://www.w3.org/2000/svg">
<path d="M23.5138 12.6746C23.5153 10.8459 23.0608 9.04577 22.1913 7.43707C21.3218 5.82837 20.0648 4.46193 18.5341 3.46147C17.0034 2.46101 15.2473 1.85813 13.4249 1.7074C11.6025 1.55667 9.77122 1.86286 8.09695 2.59824C6.42268 3.33363 4.95827 4.47498 3.83628 5.91897C2.7143 7.36297 1.97018 9.06399 1.6713 10.8681C1.37241 12.6721 1.52821 14.5222 2.12457 16.2509C2.72093 17.9796 3.73902 19.5322 5.08668 20.7683C5.13595 20.8243 5.1905 20.8754 5.24958 20.921C7.25667 22.6924 9.84157 23.67 12.5186 23.67C15.1956 23.67 17.7805 22.6924 19.7876 20.921C19.8467 20.8754 19.9013 20.8243 19.9505 20.7683C21.0739 19.7405 21.9708 18.4901 22.5843 17.0966C23.1978 15.7031 23.5143 14.1971 23.5138 12.6746ZM3.96681 12.6746C3.96375 11.3096 4.2875 9.96365 4.91098 8.74934C5.53447 7.53502 6.43958 6.4876 7.55065 5.69463C8.66173 4.90166 9.94648 4.38618 11.2975 4.19127C12.6486 3.99637 14.0266 4.12771 15.3165 4.57431C16.6064 5.02091 17.7707 5.7698 18.712 6.75838C19.6532 7.74695 20.3442 8.94649 20.7271 10.2567C21.11 11.5669 21.1736 12.9498 20.9128 14.2897C20.6519 15.6295 20.0741 16.8875 19.2277 17.9584C18.4372 16.9544 17.4319 16.1404 16.2855 15.5761C17.0192 14.8331 17.5168 13.8897 17.7157 12.8646C17.9145 11.8395 17.8058 10.7785 17.4032 9.81502C17.0006 8.85155 16.322 8.02868 15.4529 7.44991C14.5837 6.87114 13.5628 6.56233 12.5186 6.56233C11.4744 6.56233 10.4535 6.87114 9.58435 7.44991C8.71521 8.02868 8.03664 8.85155 7.63401 9.81502C7.23137 10.7785 7.12266 11.8395 7.32154 12.8646C7.52043 13.8897 8.01803 14.8331 8.75174 15.5761C7.60534 16.1404 6.59997 16.9544 5.80951 17.9584C4.61586 16.4559 3.96633 14.5935 3.96681 12.6746ZM9.668 11.8601C9.668 11.2963 9.83519 10.7452 10.1484 10.2764C10.4616 9.80764 10.9068 9.44228 11.4277 9.22652C11.9486 9.01077 12.5218 8.95432 13.0747 9.06431C13.6277 9.1743 14.1356 9.44579 14.5343 9.84445C14.9329 10.2431 15.2044 10.751 15.3144 11.304C15.4244 11.857 15.368 12.4301 15.1522 12.951C14.9365 13.4719 14.5711 13.9171 14.1023 14.2303C13.6335 14.5435 13.0824 14.7107 12.5186 14.7107C11.7634 14.708 11.0399 14.4069 10.5059 13.8728C9.97188 13.3388 9.67069 12.6153 9.668 11.8601ZM7.59114 19.6586C8.15709 18.8824 8.89841 18.2509 9.75469 17.8155C10.611 17.3801 11.558 17.1532 12.5186 17.1532C13.4792 17.1532 14.4262 17.3801 15.2825 17.8155C16.1388 18.2509 16.8801 18.8824 17.4461 19.6586C16.0052 20.678 14.2836 21.2254 12.5186 21.2254C10.7536 21.2254 9.032 20.678 7.59114 19.6586Z" fill="black"/>
</svg>
