<svg width="94" height="26" viewBox="0 0 94 26" fill="none" xmlns="http://www.w3.org/2000/svg">
<rect width="94" height="26" rx="4" fill="#2F61AD"/>
<path d="M8.53551 7.09091L11.3746 15.6776H11.4865L14.3203 7.09091H16.4936L12.6477 18H10.2081L6.36754 7.09091H8.53551ZM17.8453 18V9.81818H19.7735V18H17.8453ZM18.8147 8.65696C18.5093 8.65696 18.2465 8.55575 18.0264 8.35334C17.8062 8.14737 17.6961 7.90057 17.6961 7.61293C17.6961 7.32173 17.8062 7.07493 18.0264 6.87251C18.2465 6.66655 18.5093 6.56357 18.8147 6.56357C19.1237 6.56357 19.3865 6.66655 19.6031 6.87251C19.8232 7.07493 19.9333 7.32173 19.9333 7.61293C19.9333 7.90057 19.8232 8.14737 19.6031 8.35334C19.3865 8.55575 19.1237 8.65696 18.8147 8.65696ZM25.3786 18.1598C24.5582 18.1598 23.8498 17.9893 23.2532 17.6484C22.6602 17.304 22.2038 16.8175 21.8842 16.1889C21.5646 15.5568 21.4048 14.8129 21.4048 13.957C21.4048 13.1154 21.5646 12.3768 21.8842 11.7411C22.2074 11.1019 22.6584 10.6048 23.2372 10.2496C23.8161 9.89098 24.4961 9.71165 25.2773 9.71165C25.7816 9.71165 26.2575 9.79332 26.7049 9.95668C27.1559 10.1165 27.5536 10.3651 27.8981 10.7024C28.2461 11.0398 28.5195 11.4695 28.7184 11.9915C28.9173 12.5099 29.0167 13.1278 29.0167 13.8452V14.4364H22.3104V13.1367H27.1683C27.1648 12.7674 27.0849 12.4389 26.9286 12.1513C26.7724 11.8601 26.554 11.631 26.2734 11.4641C25.9964 11.2972 25.6733 11.2138 25.304 11.2138C24.9098 11.2138 24.5636 11.3097 24.2653 11.5014C23.967 11.6896 23.7344 11.9382 23.5675 12.2472C23.4041 12.5526 23.3207 12.8881 23.3171 13.2539V14.3885C23.3171 14.8643 23.4041 15.2727 23.5781 15.6136C23.7521 15.951 23.9954 16.2102 24.3079 16.3913C24.6204 16.5689 24.9862 16.6577 25.4052 16.6577C25.6857 16.6577 25.9396 16.6186 26.1669 16.5405C26.3942 16.4588 26.5913 16.3398 26.7582 16.1836C26.9251 16.0273 27.0511 15.8338 27.1364 15.603L28.9368 15.8054C28.8232 16.2812 28.6065 16.6967 28.2869 17.0518C27.9709 17.4034 27.5661 17.6768 27.0724 17.8722C26.5788 18.0639 26.0142 18.1598 25.3786 18.1598ZM32.2926 18L29.9808 9.81818H31.9464L33.3846 15.571H33.4592L34.9293 9.81818H36.8736L38.3438 15.5391H38.4237L39.8406 9.81818H41.8114L39.4943 18H37.4862L35.9521 12.4709H35.8402L34.3061 18H32.2926ZM46.8785 18V9.81818H48.7481V11.1818H48.8334C48.9825 10.7095 49.2382 10.3455 49.6004 10.0898C49.9662 9.83061 50.3834 9.70099 50.8522 9.70099C50.9587 9.70099 51.0777 9.70632 51.2091 9.71697C51.344 9.72408 51.4559 9.73651 51.5447 9.75426V11.5281C51.463 11.4996 51.3334 11.4748 51.1558 11.4535C50.9818 11.4286 50.8131 11.4162 50.6498 11.4162C50.2982 11.4162 49.9822 11.4925 49.7016 11.6452C49.4246 11.7944 49.2062 12.0021 49.0464 12.2685C48.8866 12.5348 48.8067 12.842 48.8067 13.19V18H46.8785ZM56.111 18.1598C55.2907 18.1598 54.5822 17.9893 53.9856 17.6484C53.3926 17.304 52.9363 16.8175 52.6167 16.1889C52.2971 15.5568 52.1373 14.8129 52.1373 13.957C52.1373 13.1154 52.2971 12.3768 52.6167 11.7411C52.9398 11.1019 53.3908 10.6048 53.9696 10.2496C54.5485 9.89098 55.2285 9.71165 56.0098 9.71165C56.514 9.71165 56.9899 9.79332 57.4373 9.95668C57.8883 10.1165 58.286 10.3651 58.6305 10.7024C58.9785 11.0398 59.252 11.4695 59.4508 11.9915C59.6497 12.5099 59.7491 13.1278 59.7491 13.8452V14.4364H53.0428V13.1367H57.9007C57.8972 12.7674 57.8173 12.4389 57.661 12.1513C57.5048 11.8601 57.2864 11.631 57.0059 11.4641C56.7289 11.2972 56.4057 11.2138 56.0364 11.2138C55.6422 11.2138 55.296 11.3097 54.9977 11.5014C54.6994 11.6896 54.4668 11.9382 54.2999 12.2472C54.1365 12.5526 54.0531 12.8881 54.0495 13.2539V14.3885C54.0495 14.8643 54.1365 15.2727 54.3105 15.6136C54.4846 15.951 54.7278 16.2102 55.0403 16.3913C55.3528 16.5689 55.7186 16.6577 56.1376 16.6577C56.4181 16.6577 56.6721 16.6186 56.8993 16.5405C57.1266 16.4588 57.3237 16.3398 57.4906 16.1836C57.6575 16.0273 57.7836 15.8338 57.8688 15.603L59.6692 15.8054C59.5556 16.2812 59.339 16.6967 59.0194 17.0518C58.7033 17.4034 58.2985 17.6768 57.8049 17.8722C57.3113 18.0639 56.7466 18.1598 56.111 18.1598ZM67.847 11.9808L66.0892 12.1726C66.0395 11.995 65.9525 11.8281 65.8282 11.6719C65.7075 11.5156 65.5441 11.3896 65.3382 11.2937C65.1322 11.1978 64.8801 11.1499 64.5818 11.1499C64.1805 11.1499 63.8431 11.2369 63.5697 11.4109C63.2998 11.5849 63.1666 11.8104 63.1702 12.0874C63.1666 12.3253 63.2536 12.5188 63.4312 12.668C63.6123 12.8171 63.9106 12.9396 64.3261 13.0355L65.7217 13.3338C66.4958 13.5007 67.0711 13.7653 67.4475 14.1275C67.8275 14.4897 68.0193 14.9638 68.0228 15.5497C68.0193 16.0646 67.8683 16.5192 67.57 16.9134C67.2753 17.304 66.8651 17.6094 66.3396 17.8295C65.814 18.0497 65.2103 18.1598 64.5285 18.1598C63.5271 18.1598 62.721 17.9503 62.1102 17.5312C61.4994 17.1087 61.1354 16.521 61.0182 15.7681L62.8985 15.587C62.9838 15.9563 63.1649 16.2351 63.4419 16.4233C63.7188 16.6115 64.0793 16.7056 64.5232 16.7056C64.9813 16.7056 65.3488 16.6115 65.6258 16.4233C65.9063 16.2351 66.0466 16.0025 66.0466 15.7255C66.0466 15.4911 65.9561 15.2976 65.7749 15.1449C65.5974 14.9922 65.3204 14.875 64.944 14.7933L63.5484 14.5004C62.7636 14.337 62.183 14.0618 61.8066 13.6747C61.4301 13.2841 61.2437 12.7905 61.2472 12.1939C61.2437 11.6896 61.3804 11.2528 61.6574 10.8835C61.9379 10.5107 62.3268 10.223 62.824 10.0206C63.3247 9.81463 63.9017 9.71165 64.5551 9.71165C65.5139 9.71165 66.2686 9.91584 66.819 10.3242C67.373 10.7326 67.7156 11.2848 67.847 11.9808ZM74.8277 14.5589V9.81818H76.7559V18H74.8863V16.5458H74.801C74.6164 17.0039 74.3128 17.3786 73.8902 17.6697C73.4711 17.9609 72.9545 18.1065 72.3401 18.1065C71.8039 18.1065 71.3298 17.9876 70.9179 17.7496C70.5095 17.5082 70.1899 17.1584 69.9591 16.7003C69.7282 16.2386 69.6128 15.6811 69.6128 15.0277V9.81818H71.5411V14.7294C71.5411 15.2479 71.6831 15.6598 71.9672 15.9652C72.2513 16.2706 72.6242 16.4233 73.0858 16.4233C73.3699 16.4233 73.6452 16.354 73.9115 16.2156C74.1778 16.0771 74.3962 15.8711 74.5667 15.5977C74.7407 15.3207 74.8277 14.9744 74.8277 14.5589ZM80.6671 7.09091V18H78.7388V7.09091H80.6671ZM86.7355 9.81818V11.3097H82.032V9.81818H86.7355ZM83.1933 7.85795H85.1215V15.5391C85.1215 15.7983 85.1606 15.9972 85.2387 16.1357C85.3204 16.2706 85.4269 16.3629 85.5583 16.4126C85.6897 16.4624 85.8353 16.4872 85.9951 16.4872C86.1159 16.4872 86.2259 16.4783 86.3254 16.4606C86.4284 16.4428 86.5065 16.4268 86.5597 16.4126L86.8847 17.9201C86.7817 17.9556 86.6343 17.9947 86.4426 18.0373C86.2544 18.0799 86.0235 18.1048 85.7501 18.1119C85.2671 18.1261 84.8321 18.0533 84.445 17.8935C84.058 17.7301 83.7508 17.478 83.5235 17.1371C83.2998 16.7962 83.1897 16.37 83.1933 15.8587V7.85795Z" fill="white"/>
</svg>
